<svg width="268" height="43" viewBox="0 0 268 43" fill="none" xmlns="http://www.w3.org/2000/svg">
<path d="M11.5859 32.5391C7.96094 32.5391 4.82812 32.1641 2.1875 31.4141L2.51562 29.8438C4.67188 30.5156 7.69531 30.8516 11.5859 30.8516C13.8984 30.8516 15.0547 30.2422 15.0547 29.0234C15.0547 28.0547 13.9375 27.5703 11.7031 27.5703H6.59375V25.8828H11.7266C13.1641 25.8828 14.3594 26.1328 15.3125 26.6328C16.2656 27.1328 16.7422 27.9297 16.7422 29.0234C16.7422 30.1953 16.2578 31.0781 15.2891 31.6719C14.3359 32.25 13.1016 32.5391 11.5859 32.5391ZM16.4609 15.8984L14.8438 15.5469C14.9844 15.3125 15.0547 14.9219 15.0547 14.375C15.0547 13 13.8984 12.3125 11.5859 12.3125C7.69531 12.3125 4.67188 12.6484 2.51562 13.3203L2.1875 11.75C4.82812 11 7.96094 10.625 11.5859 10.625C13.1016 10.625 14.3359 10.9375 15.2891 11.5625C16.2578 12.1875 16.7422 13.125 16.7422 14.375C16.7422 15.0469 16.6484 15.5547 16.4609 15.8984ZM1.85938 10.1562L1.53125 8.51562C4.45312 7.67188 7.80469 7.25 11.5859 7.25C14.0234 7.25 16.0547 7.89062 17.6797 9.17188C19.3047 10.4375 20.1172 12.1719 20.1172 14.375C20.1172 15.2656 19.9453 16.1484 19.6016 17.0234L18.0312 16.3906C18.2969 15.7969 18.4297 15.125 18.4297 14.375C18.4297 12.6562 17.7812 11.3203 16.4844 10.3672C15.1875 9.41406 13.5547 8.9375 11.5859 8.9375C7.96094 8.9375 4.71875 9.34375 1.85938 10.1562ZM22.5078 18.6172L21.125 17.7734C21.5781 16.6953 21.8047 15.5625 21.8047 14.375C21.8047 11.7031 20.8281 9.57031 18.875 7.97656C16.9219 6.36719 14.4922 5.5625 11.5859 5.5625C8.00781 5.5625 4.54688 6.01562 1.20312 6.92188L0.851562 5.23438C4.08594 4.32812 7.66406 3.875 11.5859 3.875C13.7734 3.875 15.7656 4.29688 17.5625 5.14062C19.3594 5.98438 20.7969 7.21875 21.875 8.84375C22.9531 10.4531 23.4922 12.2969 23.4922 14.375C23.4922 15.8906 23.1641 17.3047 22.5078 18.6172ZM25.0156 21.0547L23.7969 19.7891C24.7188 18.1172 25.1797 16.3125 25.1797 14.375C25.1797 11.9844 24.5625 9.85156 23.3281 7.97656C22.1094 6.10156 20.4688 4.67188 18.4062 3.6875C16.3594 2.6875 14.0859 2.1875 11.5859 2.1875C7.75781 2.1875 4.07031 2.65625 0.523438 3.59375L0.171875 1.90625C3.57812 0.96875 7.38281 0.5 11.5859 0.5C13.6797 0.5 15.6562 0.835937 17.5156 1.50781C19.3906 2.17969 21.0156 3.11719 22.3906 4.32031C23.7656 5.50781 24.8516 6.97656 25.6484 8.72656C26.4609 10.4609 26.8672 12.3438 26.8672 14.375C26.8672 16.8281 26.25 19.0547 25.0156 21.0547ZM11.5859 34.2266C13.5547 34.2266 15.1875 33.7734 16.4844 32.8672C17.7812 31.9453 18.4297 30.6641 18.4297 29.0234C18.4297 27.5078 17.7891 26.3281 16.5078 25.4844C15.2422 24.625 13.7109 24.1953 11.9141 24.1953H6.59375V22.5078H11.9375C14.2031 22.5078 16.1328 23.1016 17.7266 24.2891C19.3203 25.4609 20.1172 27.0391 20.1172 29.0234C20.1172 31.1641 19.3047 32.8516 17.6797 34.0859C16.0547 35.3047 14.0234 35.9141 11.5859 35.9141C7.80469 35.9141 4.45312 35.4922 1.53125 34.6484L1.85938 33.0078C4.71875 33.8203 7.96094 34.2266 11.5859 34.2266ZM11.5859 37.6016C14.4922 37.6016 16.9219 36.8281 18.875 35.2812C20.8281 33.7188 21.8047 31.6328 21.8047 29.0234C21.8047 26.5391 20.8438 24.5547 18.9219 23.0703C17.0156 21.5703 14.7188 20.8203 12.0312 20.8203H6.59375V19.1328H12.0781C14.1406 19.1328 16.0469 19.5703 17.7969 20.4453C19.5469 21.3047 20.9297 22.5 21.9453 24.0312C22.9766 25.5469 23.4922 27.2109 23.4922 29.0234C23.4922 31.0547 22.9531 32.8594 21.875 34.4375C20.7969 36.0156 19.3594 37.2188 17.5625 38.0469C15.7656 38.875 13.7734 39.2891 11.5859 39.2891C7.66406 39.2891 4.08594 38.8359 0.851562 37.9297L1.20312 36.2422C4.54688 37.1484 8.00781 37.6016 11.5859 37.6016ZM11.5859 40.9766C14.0859 40.9766 16.3594 40.4922 18.4062 39.5234C20.4688 38.5391 22.1094 37.1328 23.3281 35.3047C24.5625 33.4609 25.1797 31.3672 25.1797 29.0234C25.1797 27.3047 24.8047 25.7109 24.0547 24.2422C23.3047 22.7578 22.3125 21.5312 21.0781 20.5625C19.8594 19.5781 18.4688 18.8125 16.9062 18.2656C15.3438 17.7188 13.7344 17.4453 12.0781 17.4453H6.59375V15.7578H12.1719C14.0938 15.7578 15.9375 16.0781 17.7031 16.7188C19.4844 17.3594 21.0469 18.2422 22.3906 19.3672C23.75 20.4922 24.8359 21.8984 25.6484 23.5859C26.4609 25.2578 26.8672 27.0703 26.8672 29.0234C26.8672 31.6797 26.1797 34.0547 24.8047 36.1484C23.4297 38.2422 21.5781 39.8516 19.25 40.9766C16.9375 42.1016 14.3828 42.6641 11.5859 42.6641C7.38281 42.6641 3.57812 42.1953 0.171875 41.2578L0.523438 39.5703C4.07031 40.5078 7.75781 40.9766 11.5859 40.9766ZM58.5078 26.8438L60.1953 23.6562V41H58.5078V26.8438ZM61.8828 20.375L63.5703 17.1875V41H61.8828V20.375ZM65.2578 14L66.9453 10.7891V41H65.2578V14ZM53.9375 26.0469L52.9766 24.2891L64.6016 2.1875H66.5L53.9375 26.0469ZM51.9922 22.3672L51.0078 20.5859L60.7578 2.1875H62.6797L51.9922 22.3672ZM40.6953 23.8438L42.3828 27.0312V41H40.6953V23.8438ZM37.3203 17.4219L39.0078 20.6094V41H37.3203V17.4219ZM33.9453 11L35.6328 14.2109V41H33.9453V11ZM47.5859 30.875H45.6875L32.2578 5.39844V41H30.5703V2.1875H32.4688L47.5859 30.875ZM51.4062 30.875H49.4844L34.3906 2.1875H36.3125L51.4062 30.875ZM68.6328 5.39844L55.2031 30.875H53.2812L38.2109 2.1875H40.1094L54.2656 29.0938L68.3984 2.1875H70.3203V41H68.6328V5.39844ZM100.555 27.4766C100.555 26.8672 100.367 26.4609 99.9922 26.2578C99.6328 26.0547 99.1016 25.9531 98.3984 25.9531H87.5234V24.2656H98.3984C100.961 24.2656 102.242 25.3359 102.242 27.4766C102.242 28.6797 101.891 29.5469 101.188 30.0781C100.484 30.6094 99.5547 30.875 98.3984 30.875H87.5234V29.1875H98.3984C99.8359 29.1875 100.555 28.6172 100.555 27.4766ZM86.5859 41H84.8984V12.3125H98.3984C99.4609 12.3125 100.367 12.6406 101.117 13.2969C101.867 13.9375 102.242 14.7422 102.242 15.7109C102.242 16.9922 101.891 17.9219 101.188 18.5C100.484 19.0625 99.5547 19.3438 98.3984 19.3438H87.5234V17.6562H98.3984C99.8359 17.6562 100.555 17.0078 100.555 15.7109C100.555 15.1797 100.352 14.7656 99.9453 14.4688C99.5391 14.1562 99.0234 14 98.3984 14H86.5859V41ZM87.5234 21.0312H98.3984C99.9453 21.0312 101.25 20.5703 102.312 19.6484C103.391 18.7109 103.93 17.3984 103.93 15.7109C103.93 14.3516 103.367 13.1641 102.242 12.1484C101.133 11.1328 99.8516 10.625 98.3984 10.625H83.2109V41H81.5234V8.9375H98.3984C100.32 8.9375 102 9.61719 103.438 10.9766C104.891 12.3203 105.617 13.8984 105.617 15.7109C105.617 17.1328 105.281 18.375 104.609 19.4375C103.953 20.5 103.062 21.3203 101.938 21.8984C104.391 22.7734 105.617 24.5547 105.617 27.2422C105.617 29.3672 104.914 31.0703 103.508 32.3516C102.102 33.6172 100.398 34.25 98.3984 34.25H87.5234V32.5625H98.3984C99.9453 32.5625 101.25 32.1016 102.312 31.1797C103.391 30.2422 103.93 28.9297 103.93 27.2422C103.93 26.1016 103.523 25.0938 102.711 24.2188C101.898 23.3438 100.703 22.8359 99.125 22.6953C98.9688 22.7109 98.7266 22.7188 98.3984 22.7188H87.5234V21.0312ZM108.992 15.7109C108.992 17.8984 108.219 19.875 106.672 21.6406C108.219 23.3594 108.992 25.2266 108.992 27.2422C108.992 29.1953 108.5 30.9766 107.516 32.5859C106.547 34.1797 105.25 35.4219 103.625 36.3125C102.016 37.1875 100.273 37.625 98.3984 37.625H87.5234V35.9375H98.3984C100.836 35.9375 102.93 35.125 104.68 33.5C106.43 31.8594 107.305 29.7734 107.305 27.2422C107.305 26.3359 107.07 25.3359 106.602 24.2422C106.148 23.1328 105.516 22.2891 104.703 21.7109C106.438 20.0859 107.305 18.0859 107.305 15.7109C107.305 13.4297 106.414 11.4531 104.633 9.78125C102.852 8.09375 100.773 7.25 98.3984 7.25H79.8359V41H78.1484V5.5625H98.3984C100.258 5.5625 102 6.02344 103.625 6.94531C105.266 7.85156 106.57 9.09375 107.539 10.6719C108.508 12.2344 108.992 13.9141 108.992 15.7109ZM108.594 21.7344C109.984 19.875 110.68 17.8672 110.68 15.7109C110.68 13.6016 110.117 11.6406 108.992 9.82812C107.883 8 106.383 6.55469 104.492 5.49219C102.602 4.41406 100.57 3.875 98.3984 3.875H76.4609V41H74.7734V2.1875H98.3984C100.867 2.1875 103.172 2.79688 105.312 4.01562C107.469 5.23438 109.18 6.89062 110.445 8.98438C111.727 11.0625 112.367 13.3047 112.367 15.7109C112.367 18.0078 111.719 20.0234 110.422 21.7578C111.719 23.5547 112.367 25.3828 112.367 27.2422C112.367 29.3359 111.992 31.2578 111.242 33.0078C110.492 34.7422 109.477 36.1875 108.195 37.3438C106.93 38.5 105.453 39.3984 103.766 40.0391C102.078 40.6797 100.289 41 98.3984 41H87.5234V39.3125H98.3984C100.039 39.3125 101.609 39.0078 103.109 38.3984C104.609 37.7734 105.914 36.9297 107.023 35.8672C108.133 34.8047 109.016 33.5234 109.672 32.0234C110.344 30.5234 110.68 28.9297 110.68 27.2422C110.68 26.4922 110.5 25.5938 110.141 24.5469C109.797 23.4844 109.281 22.5469 108.594 21.7344Z" fill="#DB4444"/>
<path d="M137.047 17.375H134.211C133.008 17.375 132.141 17.0703 131.609 16.4609C131.078 15.8359 130.812 15.0156 130.812 14C130.812 11.75 132.492 10.625 135.852 10.625C139.008 10.625 141.383 11.0938 142.977 12.0312L141.617 13.0625C140.523 12.5625 138.602 12.3125 135.852 12.3125C134.508 12.3125 133.602 12.4609 133.133 12.7578C132.68 13.0547 132.453 13.4688 132.453 14C132.453 14.5312 132.578 14.9453 132.828 15.2422C133.078 15.5391 133.539 15.6875 134.211 15.6875H137.117C139.227 15.6875 141.125 16.0469 142.812 16.7656C144.516 17.4844 145.914 18.4688 147.008 19.7188C148.102 20.9531 148.938 22.3828 149.516 24.0078C150.094 25.6172 150.383 27.3438 150.383 29.1875C150.383 30.6875 150.172 32.1094 149.75 33.4531C149.328 34.7969 148.688 36.0312 147.828 37.1562C146.984 38.2812 145.961 39.2578 144.758 40.0859C143.57 40.8984 142.148 41.5312 140.492 41.9844C138.852 42.4531 137.07 42.6875 135.148 42.6875C132.133 42.6875 129.305 42.2266 126.664 41.3047C124.039 40.3984 121.852 39.125 120.102 37.4844L121.461 36.4766C123.055 37.9141 125.047 39.0312 127.438 39.8281C129.844 40.6094 132.414 41 135.148 41C137.289 41 139.219 40.6953 140.938 40.0859C142.672 39.4609 144.094 38.6094 145.203 37.5312C146.328 36.4531 147.188 35.2031 147.781 33.7812C148.391 32.3594 148.695 30.8281 148.695 29.1875C148.695 27.0156 148.258 25.0547 147.383 23.3047C146.508 21.5391 145.172 20.1094 143.375 19.0156C141.594 17.9219 139.484 17.375 137.047 17.375ZM134.211 19.0625H136.883C140.055 19.0625 142.531 20.0312 144.312 21.9688C146.109 23.9062 147.008 26.3125 147.008 29.1875C147.008 32.1094 145.969 34.5312 143.891 36.4531C141.812 38.3594 138.898 39.3125 135.148 39.3125C132.648 39.3125 130.312 38.9688 128.141 38.2812C125.969 37.5938 124.164 36.625 122.727 35.375L124.039 34.3203C125.32 35.3672 126.93 36.1797 128.867 36.7578C130.82 37.3359 132.914 37.625 135.148 37.625C138.445 37.625 140.961 36.8359 142.695 35.2578C144.445 33.6797 145.32 31.6562 145.32 29.1875C145.32 26.75 144.586 24.7344 143.117 23.1406C141.664 21.5469 139.578 20.75 136.859 20.75H134.211C131.93 20.75 130.219 20.125 129.078 18.875C127.938 17.625 127.367 16 127.367 14C127.367 12 128.07 10.375 129.477 9.125C130.898 7.875 133.023 7.25 135.852 7.25C137.836 7.25 139.68 7.48438 141.383 7.95312C143.086 8.40625 144.492 9.0625 145.602 9.92188L144.266 10.9531C142.312 9.60938 139.508 8.9375 135.852 8.9375C133.492 8.9375 131.766 9.40625 130.672 10.3438C129.594 11.2656 129.055 12.4844 129.055 14C129.055 15.5312 129.453 16.7578 130.25 17.6797C131.062 18.6016 132.383 19.0625 134.211 19.0625ZM134.211 22.4375H136.789C139.07 22.4375 140.781 23.0703 141.922 24.3359C143.062 25.6016 143.633 27.2188 143.633 29.1875C143.633 31.1875 142.922 32.8125 141.5 34.0625C140.094 35.3125 137.977 35.9375 135.148 35.9375C133.164 35.9375 131.312 35.7109 129.594 35.2578C127.891 34.7891 126.484 34.125 125.375 33.2656L126.711 32.2344C128.664 33.5781 131.477 34.25 135.148 34.25C137.508 34.25 139.227 33.7891 140.305 32.8672C141.398 31.9297 141.945 30.7031 141.945 29.1875C141.945 27.6719 141.539 26.4531 140.727 25.5312C139.914 24.5938 138.594 24.125 136.766 24.125H134.211C131.008 24.125 128.5 23.1719 126.688 21.2656C124.891 19.3438 123.992 16.9219 123.992 14C123.992 11.0781 125.031 8.66406 127.109 6.75781C129.188 4.83594 132.102 3.875 135.852 3.875C138.352 3.875 140.68 4.21875 142.836 4.90625C145.008 5.59375 146.812 6.5625 148.25 7.8125L146.938 8.86719C145.656 7.82031 144.047 7.00781 142.109 6.42969C140.172 5.85156 138.086 5.5625 135.852 5.5625C132.555 5.5625 130.031 6.35156 128.281 7.92969C126.547 9.50781 125.68 11.5312 125.68 14C125.68 16.4531 126.414 18.4766 127.883 20.0703C129.352 21.6484 131.461 22.4375 134.211 22.4375ZM134.211 25.8125H136.789C137.992 25.8125 138.859 26.125 139.391 26.75C139.922 27.375 140.188 28.1875 140.188 29.1875C140.188 31.4375 138.508 32.5625 135.148 32.5625C131.977 32.5625 129.594 32.0938 128 31.1562L129.359 30.125C130.453 30.625 132.383 30.875 135.148 30.875C136.492 30.875 137.391 30.7266 137.844 30.4297C138.312 30.1328 138.547 29.7188 138.547 29.1875C138.547 28.6719 138.414 28.2656 138.148 27.9688C137.898 27.6562 137.43 27.5 136.742 27.5H134.211C132.055 27.5 130.102 27.1484 128.352 26.4453C126.617 25.7422 125.188 24.7734 124.062 23.5391C122.953 22.3047 122.102 20.875 121.508 19.25C120.914 17.625 120.617 15.875 120.617 14C120.617 12.5 120.828 11.0781 121.25 9.73438C121.672 8.39062 122.305 7.15625 123.148 6.03125C124.008 4.90625 125.031 3.9375 126.219 3.125C127.422 2.29688 128.844 1.65625 130.484 1.20312C132.141 0.734375 133.93 0.5 135.852 0.5C138.867 0.5 141.688 0.960938 144.312 1.88281C146.938 2.78906 149.125 4.0625 150.875 5.70312L149.516 6.71094C147.922 5.27344 145.93 4.16406 143.539 3.38281C141.148 2.58594 138.586 2.1875 135.852 2.1875C133.711 2.1875 131.773 2.5 130.039 3.125C128.32 3.73438 126.898 4.57812 125.773 5.65625C124.664 6.73438 123.805 7.98438 123.195 9.40625C122.602 10.8281 122.305 12.3594 122.305 14C122.305 16.2031 122.75 18.1875 123.641 19.9531C124.531 21.7188 125.891 23.1406 127.719 24.2188C129.547 25.2812 131.711 25.8125 134.211 25.8125ZM187.906 7.25H189.594V41H187.906V7.25ZM154.133 7.25H155.82V41H154.133V7.25ZM184.531 7.25H186.219V41H184.531V7.25ZM181.156 7.25H182.844V41H181.156V7.25ZM177.781 7.25H179.469V41H177.781V27.5H165.945V41H164.258V7.25H165.945V19.0625H177.781V7.25ZM160.883 7.25H162.57V41H160.883V7.25ZM157.508 7.25H159.195V41H157.508V7.25ZM177.781 25.8125V24.125H165.945V25.8125H177.781ZM177.781 22.4375V20.75H165.945V22.4375H177.781ZM206.914 19.3672C205.602 20.6797 204.945 22.2656 204.945 24.125C204.945 25.9844 205.602 27.5781 206.914 28.9062C208.242 30.2188 209.836 30.875 211.695 30.875C213.555 30.875 215.141 30.2188 216.453 28.9062C217.781 27.5781 218.445 25.9844 218.445 24.125C218.445 22.2656 217.781 20.6797 216.453 19.3672C215.141 18.0391 213.555 17.375 211.695 17.375C209.836 17.375 208.242 18.0391 206.914 19.3672ZM205.719 30.1016C204.078 28.4453 203.258 26.4531 203.258 24.125C203.258 21.7969 204.078 19.8125 205.719 18.1719C207.375 16.5156 209.367 15.6875 211.695 15.6875C214.023 15.6875 216.008 16.5156 217.648 18.1719C219.305 19.8125 220.133 21.7969 220.133 24.125C220.133 26.4531 219.305 28.4453 217.648 30.1016C216.008 31.7422 214.023 32.5625 211.695 32.5625C209.367 32.5625 207.375 31.7422 205.719 30.1016ZM204.523 16.9766C202.555 18.9609 201.57 21.3438 201.57 24.125C201.57 26.9062 202.555 29.2891 204.523 31.2734C206.508 33.2578 208.898 34.25 211.695 34.25C214.492 34.25 216.875 33.2578 218.844 31.2734C220.828 29.2891 221.82 26.9062 221.82 24.125C221.82 21.3438 220.828 18.9609 218.844 16.9766C216.875 14.9922 214.492 14 211.695 14C208.898 14 206.508 14.9922 204.523 16.9766ZM201.453 30.0547C200.406 28.2422 199.883 26.2656 199.883 24.125C199.883 21.9844 200.406 20.0078 201.453 18.1953C202.516 16.3828 203.953 14.9531 205.766 13.9062C207.578 12.8438 209.555 12.3125 211.695 12.3125C213.836 12.3125 215.812 12.8438 217.625 13.9062C219.438 14.9531 220.867 16.3828 221.914 18.1953C222.977 20.0078 223.508 21.9844 223.508 24.125C223.508 26.2656 222.977 28.2422 221.914 30.0547C220.867 31.8672 219.438 33.3047 217.625 34.3672C215.812 35.4141 213.836 35.9375 211.695 35.9375C209.555 35.9375 207.578 35.4141 205.766 34.3672C203.953 33.3047 202.516 31.8672 201.453 30.0547ZM199.25 18.8984C198.547 20.5547 198.195 22.2969 198.195 24.125C198.195 25.9531 198.547 27.7031 199.25 29.375C199.969 31.0312 200.93 32.4688 202.133 33.6875C203.352 34.8906 204.789 35.8516 206.445 36.5703C208.117 37.2734 209.867 37.625 211.695 37.625C213.523 37.625 215.266 37.2734 216.922 36.5703C218.594 35.8516 220.031 34.8906 221.234 33.6875C222.453 32.4688 223.414 31.0312 224.117 29.375C224.836 27.7031 225.195 25.9531 225.195 24.125C225.195 22.2969 224.836 20.5547 224.117 18.8984C223.414 17.2266 222.453 15.7891 221.234 14.5859C220.031 13.3672 218.594 12.4062 216.922 11.7031C215.266 10.9844 213.523 10.625 211.695 10.625C209.867 10.625 208.117 10.9844 206.445 11.7031C204.789 12.4062 203.352 13.3672 202.133 14.5859C200.93 15.7891 199.969 17.2266 199.25 18.8984ZM197.703 30.0312C196.906 28.1562 196.508 26.1875 196.508 24.125C196.508 22.0625 196.906 20.0938 197.703 18.2188C198.516 16.3438 199.594 14.7344 200.938 13.3906C202.297 12.0312 203.914 10.9531 205.789 10.1562C207.664 9.34375 209.633 8.9375 211.695 8.9375C213.758 8.9375 215.727 9.34375 217.602 10.1562C219.477 10.9531 221.086 12.0312 222.43 13.3906C223.789 14.7344 224.867 16.3438 225.664 18.2188C226.477 20.0938 226.883 22.0625 226.883 24.125C226.883 26.1875 226.477 28.1562 225.664 30.0312C224.867 31.9062 223.789 33.5234 222.43 34.8828C221.086 36.2266 219.477 37.3047 217.602 38.1172C215.727 38.9141 213.758 39.3125 211.695 39.3125C209.633 39.3125 207.664 38.9141 205.789 38.1172C203.914 37.3047 202.297 36.2266 200.938 34.8828C199.594 33.5234 198.516 31.9062 197.703 30.0312ZM196.156 17.5859C195.266 19.6641 194.82 21.8438 194.82 24.125C194.82 26.4062 195.266 28.5938 196.156 30.6875C197.047 32.7656 198.242 34.5625 199.742 36.0781C201.258 37.5781 203.055 38.7734 205.133 39.6641C207.227 40.5547 209.414 41 211.695 41C213.977 41 216.156 40.5547 218.234 39.6641C220.328 38.7734 222.125 37.5781 223.625 36.0781C225.141 34.5625 226.344 32.7656 227.234 30.6875C228.125 28.5938 228.57 26.4062 228.57 24.125C228.57 21.8438 228.125 19.6641 227.234 17.5859C226.344 15.4922 225.141 13.6953 223.625 12.1953C222.125 10.6797 220.328 9.47656 218.234 8.58594C216.156 7.69531 213.977 7.25 211.695 7.25C209.414 7.25 207.227 7.69531 205.133 8.58594C203.055 9.47656 201.258 10.6797 199.742 12.1953C198.242 13.6953 197.047 15.4922 196.156 17.5859ZM194.609 31.3438C193.625 29.0469 193.133 26.6406 193.133 24.125C193.133 21.6094 193.625 19.2109 194.609 16.9297C195.594 14.6328 196.914 12.6562 198.57 11C200.227 9.34375 202.195 8.02344 204.477 7.03906C206.773 6.05469 209.18 5.5625 211.695 5.5625C214.211 5.5625 216.609 6.05469 218.891 7.03906C221.188 8.02344 223.164 9.34375 224.82 11C226.477 12.6562 227.797 14.6328 228.781 16.9297C229.766 19.2109 230.258 21.6094 230.258 24.125C230.258 26.6406 229.766 29.0469 228.781 31.3438C227.797 33.625 226.477 35.5938 224.82 37.25C223.164 38.9062 221.188 40.2266 218.891 41.2109C216.609 42.1953 214.211 42.6875 211.695 42.6875C209.18 42.6875 206.773 42.1953 204.477 41.2109C202.195 40.2266 200.227 38.9062 198.57 37.25C196.914 35.5938 195.594 33.625 194.609 31.3438ZM247.156 25.1094H254.305C255.711 25.1094 256.906 24.6875 257.891 23.8438C258.875 23 259.367 21.8125 259.367 20.2812C259.367 19.0938 258.852 18.0312 257.82 17.0938C256.789 16.1562 255.617 15.6875 254.305 15.6875H242.492V41H240.805V14H254.305C256.102 14 257.672 14.6328 259.016 15.8984C260.375 17.1641 261.055 18.625 261.055 20.2812C261.055 22.2656 260.398 23.8516 259.086 25.0391C257.773 26.2109 256.18 26.7969 254.305 26.7969H247.156V25.1094ZM247.156 28.4844H254.305C256.617 28.4844 258.602 27.7188 260.258 26.1875C261.914 24.6562 262.742 22.6875 262.742 20.2812C262.742 18.1719 261.898 16.3203 260.211 14.7266C258.523 13.1172 256.555 12.3125 254.305 12.3125H239.117V41H237.43V10.625H254.305C257.023 10.625 259.391 11.5938 261.406 13.5312C263.422 15.4531 264.43 17.7031 264.43 20.2812C264.43 23.0938 263.43 25.4453 261.43 27.3359C259.445 29.2266 257.07 30.1719 254.305 30.1719H247.156V28.4844ZM247.156 31.8594H254.305C256.414 31.8594 258.367 31.3594 260.164 30.3594C261.977 29.3594 263.422 27.9688 264.5 26.1875C265.578 24.4062 266.117 22.4375 266.117 20.2812C266.117 18.2969 265.578 16.4297 264.5 14.6797C263.438 12.9297 261.992 11.5391 260.164 10.5078C258.352 9.46094 256.398 8.9375 254.305 8.9375H235.742V41H234.055V7.25H254.305C256.086 7.25 257.805 7.60156 259.461 8.30469C261.133 9.00781 262.578 9.95312 263.797 11.1406C265.016 12.3125 265.984 13.7031 266.703 15.3125C267.438 16.9062 267.805 18.5625 267.805 20.2812C267.805 22.2969 267.445 24.1484 266.727 25.8359C266.008 27.5234 265.031 28.9297 263.797 30.0547C262.562 31.1641 261.125 32.0234 259.484 32.6328C257.859 33.2422 256.133 33.5469 254.305 33.5469H247.156V31.8594ZM245.867 41H244.18V17.375H254.305C255.227 17.375 256.016 17.6641 256.672 18.2422C257.344 18.8047 257.68 19.4844 257.68 20.2812C257.68 22.375 256.555 23.4219 254.305 23.4219H247.156V21.7344H254.305C255.43 21.7344 255.992 21.25 255.992 20.2812C255.992 19.9375 255.828 19.6484 255.5 19.4141C255.172 19.1797 254.773 19.0625 254.305 19.0625H245.867V41Z" fill="black"/>
</svg>
